<svg width="96" height="90" viewBox="0 0 96 90" fill="none" xmlns="http://www.w3.org/2000/svg">
<path d="M10 0.5H86C91.2467 0.5 95.5 4.75329 95.5 10V79.8311C95.5 85.0778 91.2467 89.3311 86 89.3311H10C4.7533 89.3311 0.5 85.0778 0.5 79.8311V10C0.500002 4.7533 4.7533 0.5 10 0.5Z" stroke="#F0F0F0"/>
<g clip-path="url(#clip0_292_457)">
<path d="M66.3775 16H76.1446L54.8112 40.5462L80 73.8313H60.2088L44.7871 53.6546L27.0522 73.8313H17.2851L40.1606 47.6145L16 16H36.3052L50.3133 34.506L66.3775 16ZM62.9076 67.9197H68.3052L33.3494 21.5261H27.4378L62.9076 67.9197Z" fill="white"/>
</g>
<defs>
<clipPath id="clip0_292_457">
<rect width="64" height="57.8313" fill="white" transform="translate(16 16)"/>
</clipPath>
</defs>
</svg>
