<svg width="1081" height="124" viewBox="0 0 1081 124" fill="none" xmlns="http://www.w3.org/2000/svg">
<path d="M1019 1.5C1052.41 1.5 1079.5 28.5868 1079.5 62C1079.5 95.4132 1052.41 122.5 1019 122.5H60.3145C27.8322 122.5 1.5 96.1678 1.5 63.6855C1.50009 29.3415 29.3415 1.50009 63.6855 1.5H1019Z" fill="#FFF9F9" stroke="white" stroke-width="3"/>
<path d="M33.4528 69.5009C30.4337 63.831 32.2721 56.6098 37.5591 53.372L76.445 29.558C81.732 26.3202 88.4655 28.2918 91.4847 33.9617C94.5038 39.6316 92.6654 46.8528 87.3783 50.0906L48.4925 73.9046C43.2055 77.1424 36.472 75.1708 33.4528 69.5009Z" fill="#EA4335"/>
<path d="M111.515 94.0383C108.496 88.3684 110.335 81.1472 115.622 77.9094L154.508 54.0954C159.795 50.8576 166.528 52.8292 169.547 58.4991C172.566 64.169 170.728 71.3902 165.441 74.628L126.555 98.442C121.268 101.68 114.535 99.7082 111.515 94.0383Z" fill="#FBBE0C"/>
<path d="M33.552 57.716C36.626 52.08 43.3783 50.1836 48.6336 53.4802L87.2864 77.7266C92.5418 81.0232 94.3101 88.2644 91.2361 93.9003C88.1622 99.5363 81.4099 101.433 76.1546 98.1361L37.5017 73.8897C32.2464 70.5931 30.4781 63.3519 33.552 57.716Z" fill="#4285F4"/>
<path d="M111.713 34.1099C114.787 28.474 121.54 26.5776 126.795 29.8742L165.448 54.1205C170.703 57.4171 172.471 64.6583 169.397 70.2943C166.323 75.9302 159.571 77.8266 154.316 74.53L115.663 50.2837C110.408 46.9871 108.639 39.7458 111.713 34.1099Z" fill="#28A769"/>
<path d="M200 57.384C197.867 57.384 196.011 56.8933 194.432 55.912C192.875 54.9093 191.659 53.544 190.784 51.816C189.931 50.0667 189.504 48.072 189.504 45.832C189.504 43.6133 189.931 41.6293 190.784 39.88C191.637 38.1307 192.875 36.7547 194.496 35.752C196.117 34.728 198.08 34.216 200.384 34.216C202.901 34.216 204.992 34.824 206.656 36.04C208.341 37.256 209.429 38.9307 209.92 41.064H206.816C206.517 39.72 205.803 38.6533 204.672 37.864C203.563 37.0747 202.133 36.68 200.384 36.68C198.613 36.68 197.12 37.0853 195.904 37.896C194.688 38.7067 193.771 39.8053 193.152 41.192C192.555 42.5573 192.256 44.104 192.256 45.832C192.256 47.5813 192.565 49.1493 193.184 50.536C193.803 51.9227 194.699 53.0107 195.872 53.8C197.045 54.5893 198.453 54.984 200.096 54.984C202.485 54.984 204.288 54.2907 205.504 52.904C206.72 51.496 207.413 49.576 207.584 47.144H199.52V45.032H210.336V57H207.872L207.648 53.32C206.837 54.6213 205.845 55.624 204.672 56.328C203.499 57.032 201.941 57.384 200 57.384ZM221.755 57.384C220.304 57.384 218.971 57.064 217.755 56.424C216.539 55.7627 215.568 54.8133 214.843 53.576C214.117 52.3173 213.755 50.8027 213.755 49.032C213.755 47.3467 214.107 45.8853 214.811 44.648C215.536 43.4107 216.507 42.4507 217.723 41.768C218.96 41.0853 220.347 40.744 221.883 40.744C223.355 40.744 224.699 41.064 225.915 41.704C227.152 42.344 228.144 43.2827 228.891 44.52C229.637 45.7573 230.011 47.2613 230.011 49.032C230.011 50.6533 229.659 52.0933 228.955 53.352C228.251 54.6107 227.269 55.6027 226.011 56.328C224.773 57.032 223.355 57.384 221.755 57.384ZM221.755 55.048C222.8 55.048 223.739 54.8027 224.571 54.312C225.403 53.8 226.064 53.096 226.555 52.2C227.045 51.304 227.291 50.248 227.291 49.032C227.291 47.88 227.077 46.856 226.651 45.96C226.224 45.064 225.605 44.36 224.795 43.848C223.984 43.336 223.003 43.08 221.851 43.08C220.677 43.08 219.685 43.3467 218.875 43.88C218.085 44.4133 217.488 45.128 217.083 46.024C216.677 46.92 216.475 47.9227 216.475 49.032C216.475 50.44 216.731 51.592 217.243 52.488C217.755 53.3627 218.416 54.0133 219.227 54.44C220.037 54.8453 220.88 55.048 221.755 55.048ZM241.067 57.384C239.617 57.384 238.283 57.064 237.067 56.424C235.851 55.7627 234.881 54.8133 234.155 53.576C233.43 52.3173 233.067 50.8027 233.067 49.032C233.067 47.3467 233.419 45.8853 234.123 44.648C234.849 43.4107 235.819 42.4507 237.035 41.768C238.273 41.0853 239.659 40.744 241.195 40.744C242.667 40.744 244.011 41.064 245.227 41.704C246.465 42.344 247.457 43.2827 248.203 44.52C248.95 45.7573 249.323 47.2613 249.323 49.032C249.323 50.6533 248.971 52.0933 248.267 53.352C247.563 54.6107 246.582 55.6027 245.323 56.328C244.086 57.032 242.667 57.384 241.067 57.384ZM241.067 55.048C242.113 55.048 243.051 54.8027 243.883 54.312C244.715 53.8 245.377 53.096 245.867 52.2C246.358 51.304 246.603 50.248 246.603 49.032C246.603 47.88 246.39 46.856 245.963 45.96C245.537 45.064 244.918 44.36 244.107 43.848C243.297 43.336 242.315 43.08 241.163 43.08C239.99 43.08 238.998 43.3467 238.187 43.88C237.398 44.4133 236.801 45.128 236.395 46.024C235.99 46.92 235.787 47.9227 235.787 49.032C235.787 50.44 236.043 51.592 236.555 52.488C237.067 53.3627 237.729 54.0133 238.539 54.44C239.35 54.8453 240.193 55.048 241.067 55.048ZM259.2 64.424C257.941 64.424 256.736 64.264 255.584 63.944C254.432 63.624 253.493 63.08 252.768 62.312C252.064 61.5653 251.712 60.5627 251.712 59.304C251.712 58.4293 251.914 57.704 252.32 57.128C252.725 56.552 253.258 56.1147 253.92 55.816C253.408 55.5173 252.992 55.144 252.672 54.696C252.352 54.248 252.192 53.736 252.192 53.16C252.192 51.88 252.768 50.8453 253.92 50.056C253.493 49.5653 253.152 49.0213 252.896 48.424C252.661 47.8053 252.544 47.1227 252.544 46.376C252.544 45.2027 252.81 44.2 253.344 43.368C253.898 42.5147 254.645 41.864 255.584 41.416C256.544 40.968 257.632 40.744 258.848 40.744C259.744 40.744 260.586 40.872 261.376 41.128H266.784V43.4H264.32C264.597 43.8267 264.8 44.296 264.928 44.808C265.077 45.2987 265.152 45.8213 265.152 46.376C265.152 47.592 264.864 48.616 264.288 49.448C263.733 50.28 262.976 50.92 262.016 51.368C261.077 51.7947 260.021 52.008 258.848 52.008C258.25 52.008 257.706 51.944 257.216 51.816C256.725 51.688 256.234 51.5067 255.744 51.272C255.189 51.5493 254.911 51.976 254.911 52.552C254.911 53.6187 255.808 54.152 257.6 54.152H260.256C261.45 54.152 262.506 54.312 263.424 54.632C264.341 54.9307 265.056 55.432 265.568 56.136C266.101 56.8187 266.368 57.7573 266.368 58.952C266.368 60.168 266.026 61.1813 265.344 61.992C264.661 62.8027 263.776 63.4107 262.688 63.816C261.6 64.2213 260.437 64.424 259.2 64.424ZM259.135 62.184C260.416 62.184 261.504 61.9387 262.4 61.448C263.296 60.9787 263.744 60.2533 263.744 59.272C263.744 57.4373 262.634 56.52 260.416 56.52H257.696C256.65 56.52 255.829 56.744 255.232 57.192C254.634 57.6613 254.336 58.3547 254.336 59.272C254.336 59.976 254.56 60.5413 255.008 60.968C255.456 61.3947 256.042 61.704 256.768 61.896C257.493 62.088 258.282 62.184 259.135 62.184ZM258.784 49.768C259.893 49.768 260.8 49.448 261.504 48.808C262.208 48.168 262.56 47.3573 262.56 46.376C262.56 45.3947 262.208 44.584 261.504 43.944C260.8 43.304 259.893 42.984 258.784 42.984C257.674 42.984 256.778 43.304 256.096 43.944C255.434 44.584 255.104 45.3947 255.104 46.376C255.104 47.3573 255.424 48.168 256.064 48.808C256.725 49.448 257.632 49.768 258.784 49.768ZM269.833 57V34.6H272.521V57H269.833ZM284.063 57.384C282.591 57.384 281.257 57.0427 280.063 56.36C278.889 55.6773 277.961 54.7173 277.279 53.48C276.596 52.2213 276.255 50.7493 276.255 49.064C276.255 47.4 276.575 45.9493 277.215 44.712C277.876 43.4533 278.793 42.4827 279.967 41.8C281.161 41.096 282.548 40.744 284.127 40.744C285.62 40.744 286.921 41.0747 288.031 41.736C289.14 42.3973 290.004 43.2933 290.623 44.424C291.263 45.5333 291.583 46.7813 291.583 48.168C291.583 48.4667 291.583 48.7013 291.583 48.872C291.583 49.0427 291.572 49.3093 291.551 49.672H278.911C278.975 50.7173 279.22 51.656 279.647 52.488C280.095 53.2987 280.692 53.9387 281.439 54.408C282.207 54.8773 283.081 55.112 284.063 55.112C285.172 55.112 286.1 54.856 286.847 54.344C287.593 53.832 288.137 53.1387 288.479 52.264H291.135C290.857 53.2453 290.399 54.12 289.759 54.888C289.119 55.656 288.319 56.264 287.359 56.712C286.42 57.16 285.321 57.384 284.063 57.384ZM278.943 47.592H288.927C288.863 46.1627 288.372 45.0427 287.455 44.232C286.537 43.4213 285.407 43.016 284.063 43.016C282.783 43.016 281.641 43.4107 280.639 44.2C279.657 44.968 279.092 46.0987 278.943 47.592ZM303.774 57V34.6H310.654C313.3 34.6 315.465 35.0587 317.15 35.976C318.857 36.872 320.116 38.1627 320.926 39.848C321.758 41.512 322.174 43.5173 322.174 45.864C322.174 48.168 321.758 50.152 320.926 51.816C320.116 53.48 318.857 54.76 317.15 55.656C315.465 56.552 313.3 57 310.654 57H303.774ZM306.462 54.76H310.59C312.724 54.76 314.43 54.4187 315.71 53.736C317.012 53.032 317.95 52.0187 318.526 50.696C319.102 49.352 319.39 47.7413 319.39 45.864C319.39 42.8133 318.686 40.552 317.278 39.08C315.87 37.5867 313.641 36.84 310.59 36.84H306.462V54.76ZM333.032 57.384C331.56 57.384 330.226 57.0427 329.032 56.36C327.858 55.6773 326.93 54.7173 326.248 53.48C325.565 52.2213 325.224 50.7493 325.224 49.064C325.224 47.4 325.544 45.9493 326.184 44.712C326.845 43.4533 327.762 42.4827 328.936 41.8C330.13 41.096 331.517 40.744 333.095 40.744C334.589 40.744 335.89 41.0747 337 41.736C338.109 42.3973 338.973 43.2933 339.592 44.424C340.232 45.5333 340.552 46.7813 340.552 48.168C340.552 48.4667 340.552 48.7013 340.552 48.872C340.552 49.0427 340.541 49.3093 340.52 49.672H327.88C327.944 50.7173 328.189 51.656 328.616 52.488C329.064 53.2987 329.661 53.9387 330.408 54.408C331.176 54.8773 332.05 55.112 333.032 55.112C334.141 55.112 335.069 54.856 335.816 54.344C336.562 53.832 337.106 53.1387 337.448 52.264H340.104C339.826 53.2453 339.368 54.12 338.728 54.888C338.088 55.656 337.288 56.264 336.328 56.712C335.389 57.16 334.29 57.384 333.032 57.384ZM327.911 47.592H337.896C337.832 46.1627 337.341 45.0427 336.424 44.232C335.506 43.4213 334.376 43.016 333.032 43.016C331.752 43.016 330.61 43.4107 329.608 44.2C328.626 44.968 328.061 46.0987 327.911 47.592ZM348.065 57L342.049 41.128H344.865L349.633 54.408L354.433 41.128H357.185L351.169 57H348.065ZM366.5 57.384C365.028 57.384 363.695 57.0427 362.5 56.36C361.327 55.6773 360.399 54.7173 359.716 53.48C359.034 52.2213 358.692 50.7493 358.692 49.064C358.692 47.4 359.012 45.9493 359.652 44.712C360.314 43.4533 361.231 42.4827 362.404 41.8C363.599 41.096 364.986 40.744 366.564 40.744C368.058 40.744 369.359 41.0747 370.468 41.736C371.578 42.3973 372.442 43.2933 373.06 44.424C373.7 45.5333 374.02 46.7813 374.02 48.168C374.02 48.4667 374.02 48.7013 374.02 48.872C374.02 49.0427 374.01 49.3093 373.988 49.672H361.348C361.412 50.7173 361.658 51.656 362.084 52.488C362.532 53.2987 363.13 53.9387 363.876 54.408C364.644 54.8773 365.519 55.112 366.5 55.112C367.61 55.112 368.538 54.856 369.284 54.344C370.031 53.832 370.575 53.1387 370.916 52.264H373.572C373.295 53.2453 372.836 54.12 372.196 54.888C371.556 55.656 370.756 56.264 369.796 56.712C368.858 57.16 367.759 57.384 366.5 57.384ZM361.38 47.592H371.364C371.3 46.1627 370.81 45.0427 369.892 44.232C368.975 43.4213 367.844 43.016 366.5 43.016C365.22 43.016 364.079 43.4107 363.076 44.2C362.095 44.968 361.53 46.0987 361.38 47.592ZM377.583 57V34.6H380.271V57H377.583ZM392.005 57.384C390.554 57.384 389.221 57.064 388.005 56.424C386.789 55.7627 385.818 54.8133 385.093 53.576C384.367 52.3173 384.005 50.8027 384.005 49.032C384.005 47.3467 384.357 45.8853 385.061 44.648C385.786 43.4107 386.757 42.4507 387.973 41.768C389.21 41.0853 390.597 40.744 392.133 40.744C393.605 40.744 394.949 41.064 396.165 41.704C397.402 42.344 398.394 43.2827 399.141 44.52C399.887 45.7573 400.261 47.2613 400.261 49.032C400.261 50.6533 399.909 52.0933 399.205 53.352C398.501 54.6107 397.519 55.6027 396.261 56.328C395.023 57.032 393.605 57.384 392.005 57.384ZM392.005 55.048C393.05 55.048 393.989 54.8027 394.821 54.312C395.653 53.8 396.314 53.096 396.805 52.2C397.295 51.304 397.541 50.248 397.541 49.032C397.541 47.88 397.327 46.856 396.901 45.96C396.474 45.064 395.855 44.36 395.045 43.848C394.234 43.336 393.253 43.08 392.101 43.08C390.927 43.08 389.935 43.3467 389.125 43.88C388.335 44.4133 387.738 45.128 387.333 46.024C386.927 46.92 386.725 47.9227 386.725 49.032C386.725 50.44 386.981 51.592 387.493 52.488C388.005 53.3627 388.666 54.0133 389.477 54.44C390.287 54.8453 391.13 55.048 392.005 55.048ZM403.989 64.04V41.128H406.421L406.677 43.752C407.189 42.984 407.915 42.2907 408.853 41.672C409.813 41.0533 411.029 40.744 412.501 40.744C414.101 40.744 415.488 41.1067 416.661 41.832C417.835 42.5573 418.741 43.5493 419.381 44.808C420.021 46.0667 420.341 47.496 420.341 49.096C420.341 50.6747 420.021 52.0933 419.381 53.352C418.741 54.6107 417.824 55.6027 416.629 56.328C415.456 57.032 414.069 57.384 412.469 57.384C411.168 57.384 410.005 57.1173 408.981 56.584C407.979 56.0507 407.211 55.304 406.677 54.344V64.04H403.989ZM412.181 55.048C413.269 55.048 414.219 54.8027 415.029 54.312C415.84 53.8 416.469 53.096 416.917 52.2C417.387 51.2827 417.621 50.2373 417.621 49.064C417.621 47.9333 417.397 46.92 416.949 46.024C416.523 45.1067 415.904 44.392 415.093 43.88C414.283 43.3467 413.312 43.08 412.181 43.08C411.115 43.08 410.165 43.336 409.333 43.848C408.523 44.3387 407.883 45.032 407.413 45.928C406.965 46.824 406.741 47.8693 406.741 49.064C406.741 50.1733 406.965 51.1867 407.413 52.104C407.861 53 408.491 53.7147 409.301 54.248C410.112 54.7813 411.072 55.048 412.181 55.048ZM431.219 57.384C429.747 57.384 428.414 57.0427 427.219 56.36C426.046 55.6773 425.118 54.7173 424.435 53.48C423.752 52.2213 423.411 50.7493 423.411 49.064C423.411 47.4 423.731 45.9493 424.371 44.712C425.032 43.4533 425.95 42.4827 427.123 41.8C428.318 41.096 429.704 40.744 431.283 40.744C432.776 40.744 434.078 41.0747 435.187 41.736C436.296 42.3973 437.16 43.2933 437.779 44.424C438.419 45.5333 438.739 46.7813 438.739 48.168C438.739 48.4667 438.739 48.7013 438.739 48.872C438.739 49.0427 438.728 49.3093 438.707 49.672H426.067C426.131 50.7173 426.376 51.656 426.803 52.488C427.251 53.2987 427.848 53.9387 428.595 54.408C429.363 54.8773 430.238 55.112 431.219 55.112C432.328 55.112 433.256 54.856 434.003 54.344C434.75 53.832 435.294 53.1387 435.635 52.264H438.291C438.014 53.2453 437.555 54.12 436.915 54.888C436.275 55.656 435.475 56.264 434.515 56.712C433.576 57.16 432.478 57.384 431.219 57.384ZM426.099 47.592H436.083C436.019 46.1627 435.528 45.0427 434.611 44.232C433.694 43.4213 432.563 43.016 431.219 43.016C429.939 43.016 428.798 43.4107 427.795 44.2C426.814 44.968 426.248 46.0987 426.099 47.592ZM442.302 57V41.128H444.734L444.958 44.168C445.448 43.1227 446.195 42.2907 447.198 41.672C448.2 41.0533 449.438 40.744 450.91 40.744V43.56H450.174C448.424 43.56 447.123 44.0293 446.27 44.968C445.416 45.9067 444.99 47.2507 444.99 49V57H442.302ZM472.188 57.384C470.054 57.384 468.198 56.8933 466.62 55.912C465.062 54.9093 463.846 53.544 462.972 51.816C462.118 50.0667 461.692 48.072 461.692 45.832C461.692 43.6133 462.118 41.6293 462.972 39.88C463.825 38.1307 465.062 36.7547 466.684 35.752C468.305 34.728 470.268 34.216 472.572 34.216C475.089 34.216 477.179 34.824 478.844 36.04C480.529 37.256 481.617 38.9307 482.108 41.064H479.003C478.705 39.72 477.99 38.6533 476.86 37.864C475.75 37.0747 474.321 36.68 472.572 36.68C470.801 36.68 469.308 37.0853 468.092 37.896C466.876 38.7067 465.958 39.8053 465.34 41.192C464.742 42.5573 464.444 44.104 464.444 45.832C464.444 47.5813 464.753 49.1493 465.372 50.536C465.99 51.9227 466.886 53.0107 468.06 53.8C469.233 54.5893 470.641 54.984 472.284 54.984C474.673 54.984 476.476 54.2907 477.692 52.904C478.908 51.496 479.601 49.576 479.772 47.144H471.708V45.032H482.524V57H480.06L479.836 53.32C479.025 54.6213 478.033 55.624 476.86 56.328C475.686 57.032 474.129 57.384 472.188 57.384ZM486.614 57V41.128H489.046L489.27 44.168C489.761 43.1227 490.508 42.2907 491.51 41.672C492.513 41.0533 493.75 40.744 495.222 40.744V43.56H494.486C492.737 43.56 491.436 44.0293 490.582 44.968C489.729 45.9067 489.302 47.2507 489.302 49V57H486.614ZM504.974 57.384C503.523 57.384 502.19 57.064 500.974 56.424C499.758 55.7627 498.787 54.8133 498.062 53.576C497.336 52.3173 496.974 50.8027 496.974 49.032C496.974 47.3467 497.326 45.8853 498.03 44.648C498.755 43.4107 499.726 42.4507 500.942 41.768C502.179 41.0853 503.566 40.744 505.102 40.744C506.574 40.744 507.918 41.064 509.134 41.704C510.371 42.344 511.363 43.2827 512.11 44.52C512.856 45.7573 513.23 47.2613 513.23 49.032C513.23 50.6533 512.878 52.0933 512.174 53.352C511.47 54.6107 510.488 55.6027 509.23 56.328C507.992 57.032 506.574 57.384 504.974 57.384ZM504.974 55.048C506.019 55.048 506.958 54.8027 507.79 54.312C508.622 53.8 509.283 53.096 509.774 52.2C510.264 51.304 510.51 50.248 510.51 49.032C510.51 47.88 510.296 46.856 509.87 45.96C509.443 45.064 508.824 44.36 508.014 43.848C507.203 43.336 506.222 43.08 505.07 43.08C503.896 43.08 502.904 43.3467 502.094 43.88C501.304 44.4133 500.707 45.128 500.302 46.024C499.896 46.92 499.694 47.9227 499.694 49.032C499.694 50.44 499.95 51.592 500.462 52.488C500.974 53.3627 501.635 54.0133 502.446 54.44C503.256 54.8453 504.099 55.048 504.974 55.048ZM522.782 57.384C521.545 57.384 520.457 57.1387 519.518 56.648C518.601 56.136 517.886 55.368 517.374 54.344C516.862 53.2987 516.606 51.9867 516.606 50.408V41.128H519.294V50.12C519.294 51.7627 519.635 53 520.318 53.832C521.001 54.664 522.025 55.08 523.39 55.08C524.755 55.08 525.886 54.5893 526.782 53.608C527.699 52.6053 528.158 51.1867 528.158 49.352V41.128H530.846V57H528.414L528.254 54.152C527.742 55.1547 527.006 55.944 526.046 56.52C525.086 57.096 523.998 57.384 522.782 57.384ZM535.271 64.04V41.128H537.703L537.959 43.752C538.471 42.984 539.196 42.2907 540.135 41.672C541.095 41.0533 542.311 40.744 543.783 40.744C545.383 40.744 546.769 41.1067 547.943 41.832C549.116 42.5573 550.023 43.5493 550.663 44.808C551.303 46.0667 551.623 47.496 551.623 49.096C551.623 50.6747 551.303 52.0933 550.663 53.352C550.023 54.6107 549.105 55.6027 547.911 56.328C546.737 57.032 545.351 57.384 543.751 57.384C542.449 57.384 541.287 57.1173 540.263 56.584C539.26 56.0507 538.492 55.304 537.959 54.344V64.04H535.271ZM543.463 55.048C544.551 55.048 545.5 54.8027 546.311 54.312C547.121 53.8 547.751 53.096 548.199 52.2C548.668 51.2827 548.903 50.2373 548.903 49.064C548.903 47.9333 548.679 46.92 548.231 46.024C547.804 45.1067 547.185 44.392 546.375 43.88C545.564 43.3467 544.593 43.08 543.463 43.08C542.396 43.08 541.447 43.336 540.615 43.848C539.804 44.3387 539.164 45.032 538.695 45.928C538.247 46.824 538.023 47.8693 538.023 49.064C538.023 50.1733 538.247 51.1867 538.695 52.104C539.143 53 539.772 53.7147 540.583 54.248C541.393 54.7813 542.353 55.048 543.463 55.048Z" fill="black"/>
<path d="M202.857 92.384C201.15 92.384 199.614 92.096 198.249 91.52C196.883 90.9227 195.721 90.1013 194.761 89.056C193.801 88.0107 193.065 86.784 192.553 85.376C192.062 83.968 191.817 82.4427 191.817 80.8C191.817 79.1573 192.062 77.632 192.553 76.224C193.065 74.816 193.801 73.5893 194.761 72.544C195.721 71.4987 196.873 70.688 198.217 70.112C199.582 69.5147 201.129 69.216 202.857 69.216C204.563 69.216 206.089 69.504 207.433 70.08C208.798 70.6347 209.961 71.4347 210.921 72.48C211.881 73.504 212.617 74.7307 213.129 76.16C213.641 77.568 213.897 79.1147 213.897 80.8C213.897 82.4853 213.641 84.0427 213.129 85.472C212.617 86.88 211.881 88.1067 210.921 89.152C209.961 90.176 208.798 90.976 207.433 91.552C206.089 92.1067 204.563 92.384 202.857 92.384ZM202.857 90.016C204.606 90.016 206.099 89.6213 207.337 88.832C208.574 88.0427 209.513 86.9547 210.153 85.568C210.814 84.1813 211.145 82.592 211.145 80.8C211.145 78.9653 210.814 77.3653 210.153 76C209.513 74.6133 208.574 73.536 207.337 72.768C206.099 72 204.606 71.616 202.857 71.616C201.129 71.616 199.646 72.0107 198.409 72.8C197.171 73.5893 196.222 74.6773 195.561 76.064C194.899 77.4293 194.569 79.008 194.569 80.8C194.569 82.5707 194.899 84.16 195.561 85.568C196.222 86.9547 197.171 88.0427 198.409 88.832C199.646 89.6213 201.129 90.016 202.857 90.016ZM217.614 92V76.128H220.046L220.206 78.976C220.718 77.9733 221.454 77.184 222.414 76.608C223.374 76.032 224.462 75.744 225.678 75.744C227.556 75.744 229.049 76.32 230.158 77.472C231.289 78.6027 231.854 80.352 231.854 82.72V92H229.166V83.008C229.166 81.3653 228.825 80.128 228.142 79.296C227.46 78.464 226.436 78.048 225.07 78.048C223.705 78.048 222.564 78.5493 221.646 79.552C220.75 80.5333 220.302 81.9413 220.302 83.776V92H217.614ZM254.411 92.384C252.149 92.384 250.219 91.8827 248.619 90.88C247.019 89.856 245.803 88.4693 244.971 86.72C244.139 84.9707 243.723 82.9973 243.723 80.8C243.723 78.624 244.128 76.6613 244.939 74.912C245.771 73.1627 246.987 71.776 248.587 70.752C250.187 69.728 252.128 69.216 254.411 69.216C256.971 69.216 259.051 69.8347 260.651 71.072C262.272 72.288 263.307 73.9947 263.755 76.192H260.779C260.437 74.8053 259.733 73.696 258.667 72.864C257.621 72.0107 256.203 71.584 254.411 71.584C252.64 71.584 251.168 72 249.995 72.832C248.821 73.6427 247.936 74.7413 247.339 76.128C246.763 77.5147 246.475 79.072 246.475 80.8C246.475 82.5707 246.773 84.1493 247.371 85.536C247.989 86.9227 248.885 88.0213 250.059 88.832C251.232 89.6213 252.683 90.016 254.411 90.016C256.203 90.016 257.621 89.6107 258.667 88.8C259.733 87.968 260.437 86.8693 260.779 85.504H263.755C263.307 87.6587 262.272 89.344 260.651 90.56C259.051 91.776 256.971 92.384 254.411 92.384ZM272.738 92.384C271.65 92.384 270.658 92.2027 269.762 91.84C268.866 91.4773 268.151 90.9333 267.618 90.208C267.106 89.4613 266.85 88.5547 266.85 87.488C266.85 86.2507 267.17 85.2693 267.81 84.544C268.45 83.7973 269.293 83.264 270.338 82.944C271.405 82.6027 272.546 82.432 273.762 82.432H278.05C278.05 81.3227 277.858 80.448 277.474 79.808C277.111 79.168 276.631 78.7093 276.034 78.432C275.437 78.1547 274.775 78.016 274.05 78.016C273.005 78.016 272.098 78.272 271.33 78.784C270.583 79.2747 270.114 80.0427 269.922 81.088H267.17C267.277 79.936 267.661 78.9653 268.322 78.176C268.983 77.3867 269.815 76.7893 270.818 76.384C271.842 75.9573 272.919 75.744 274.05 75.744C275.65 75.744 276.941 76.0427 277.922 76.64C278.903 77.216 279.618 77.9947 280.066 78.976C280.514 79.9573 280.738 81.0453 280.738 82.24V87.104C280.738 87.8933 280.834 88.4907 281.026 88.896C281.218 89.3013 281.709 89.5467 282.498 89.632V92C281.794 92 281.154 91.9147 280.578 91.744C280.002 91.552 279.511 91.2533 279.106 90.848C278.722 90.4213 278.445 89.8667 278.274 89.184C277.741 90.08 277.005 90.8373 276.066 91.456C275.149 92.0747 274.039 92.384 272.738 92.384ZM273.154 90.112C274.221 90.112 275.117 89.8453 275.842 89.312C276.567 88.7573 277.111 88.0533 277.474 87.2C277.858 86.3467 278.05 85.4613 278.05 84.544V84.512H273.986C273.239 84.512 272.535 84.5973 271.874 84.768C271.213 84.9173 270.679 85.2053 270.274 85.632C269.869 86.0373 269.666 86.6133 269.666 87.36C269.666 88.32 270.007 89.024 270.69 89.472C271.373 89.8987 272.194 90.112 273.154 90.112ZM285.739 92V76.128H288.171L288.363 78.432C288.875 77.5787 289.558 76.9173 290.411 76.448C291.265 75.9787 292.225 75.744 293.291 75.744C294.55 75.744 295.627 76 296.523 76.512C297.441 77.024 298.145 77.8027 298.635 78.848C299.19 77.888 299.947 77.1307 300.907 76.576C301.889 76.0213 302.945 75.744 304.075 75.744C305.355 75.744 306.454 76 307.371 76.512C308.31 77.0027 309.035 77.7707 309.547 78.816C310.059 79.84 310.315 81.1413 310.315 82.72V92H307.659V83.008C307.659 81.3653 307.329 80.128 306.667 79.296C306.006 78.464 305.057 78.048 303.819 78.048C302.539 78.048 301.473 78.5493 300.619 79.552C299.787 80.5333 299.371 81.9413 299.371 83.776V92H296.683V83.008C296.683 81.3653 296.353 80.128 295.691 79.296C295.03 78.464 294.081 78.048 292.843 78.048C291.585 78.048 290.529 78.5493 289.675 79.552C288.843 80.5333 288.427 81.9413 288.427 83.776V92H285.739ZM314.364 99.04V76.128H316.796L317.052 78.752C317.564 77.984 318.29 77.2907 319.228 76.672C320.188 76.0533 321.404 75.744 322.876 75.744C324.476 75.744 325.863 76.1067 327.036 76.832C328.21 77.5573 329.116 78.5493 329.756 79.808C330.396 81.0667 330.716 82.496 330.716 84.096C330.716 85.6747 330.396 87.0933 329.756 88.352C329.116 89.6107 328.199 90.6027 327.004 91.328C325.831 92.032 324.444 92.384 322.844 92.384C321.543 92.384 320.38 92.1173 319.356 91.584C318.354 91.0507 317.586 90.304 317.052 89.344V99.04H314.364ZM322.556 90.048C323.644 90.048 324.594 89.8027 325.404 89.312C326.215 88.8 326.844 88.096 327.292 87.2C327.762 86.2827 327.996 85.2373 327.996 84.064C327.996 82.9333 327.772 81.92 327.324 81.024C326.898 80.1067 326.279 79.392 325.468 78.88C324.658 78.3467 323.687 78.08 322.556 78.08C321.49 78.08 320.54 78.336 319.708 78.848C318.898 79.3387 318.258 80.032 317.788 80.928C317.34 81.824 317.116 82.8693 317.116 84.064C317.116 85.1733 317.34 86.1867 317.788 87.104C318.236 88 318.866 88.7147 319.676 89.248C320.487 89.7813 321.447 90.048 322.556 90.048ZM340.282 92.384C339.045 92.384 337.957 92.1387 337.018 91.648C336.101 91.136 335.386 90.368 334.874 89.344C334.362 88.2987 334.106 86.9867 334.106 85.408V76.128H336.794V85.12C336.794 86.7627 337.135 88 337.818 88.832C338.501 89.664 339.525 90.08 340.89 90.08C342.255 90.08 343.386 89.5893 344.282 88.608C345.199 87.6053 345.658 86.1867 345.658 84.352V76.128H348.346V92H345.914L345.754 89.152C345.242 90.1547 344.506 90.944 343.546 91.52C342.586 92.096 341.498 92.384 340.282 92.384ZM358.851 92.384C357.592 92.384 356.461 92.1707 355.459 91.744C354.456 91.296 353.645 90.6773 353.027 89.888C352.429 89.0773 352.056 88.128 351.907 87.04H354.659C354.829 87.872 355.267 88.5973 355.971 89.216C356.696 89.8133 357.667 90.112 358.883 90.112C360.013 90.112 360.845 89.8773 361.379 89.408C361.912 88.9173 362.179 88.3413 362.179 87.68C362.179 87.04 362.019 86.5493 361.699 86.208C361.4 85.8667 360.952 85.6107 360.355 85.44C359.779 85.248 359.064 85.0667 358.211 84.896C357.315 84.704 356.44 84.448 355.587 84.128C354.733 83.7867 354.029 83.328 353.475 82.752C352.92 82.176 352.643 81.4187 352.643 80.48C352.643 79.5413 352.877 78.72 353.347 78.016C353.816 77.312 354.477 76.7573 355.331 76.352C356.205 75.9467 357.229 75.744 358.403 75.744C360.088 75.744 361.464 76.1707 362.531 77.024C363.619 77.856 364.248 79.0507 364.419 80.608H361.763C361.656 79.7973 361.304 79.168 360.707 78.72C360.131 78.2507 359.352 78.016 358.371 78.016C357.411 78.016 356.664 78.2187 356.131 78.624C355.619 79.0293 355.363 79.5627 355.363 80.224C355.363 80.6507 355.512 81.0133 355.811 81.312C356.109 81.6107 356.536 81.8667 357.091 82.08C357.667 82.2933 358.339 82.4853 359.107 82.656C360.173 82.8693 361.144 83.136 362.019 83.456C362.893 83.776 363.597 84.2453 364.131 84.864C364.664 85.4613 364.931 86.3253 364.931 87.456C364.952 88.3947 364.707 89.2373 364.195 89.984C363.704 90.7307 363 91.3173 362.083 91.744C361.187 92.1707 360.109 92.384 358.851 92.384ZM380.727 85.184C380.023 85.184 379.383 85.0133 378.807 84.672C378.231 84.3307 377.773 83.872 377.431 83.296C377.09 82.6987 376.919 82.048 376.919 81.344C376.919 80.6187 377.09 79.968 377.431 79.392C377.773 78.7947 378.231 78.3253 378.807 77.984C379.383 77.6427 380.023 77.472 380.727 77.472C381.453 77.472 382.103 77.6427 382.679 77.984C383.277 78.3253 383.746 78.7947 384.087 79.392C384.429 79.968 384.599 80.6187 384.599 81.344C384.599 82.048 384.429 82.6987 384.087 83.296C383.746 83.872 383.277 84.3307 382.679 84.672C382.103 85.0133 381.453 85.184 380.727 85.184Z" fill="#4285F4"/>
<path d="M398.5 92.384C396.367 92.384 394.511 91.8933 392.932 90.912C391.375 89.9093 390.159 88.544 389.284 86.816C388.431 85.0667 388.004 83.072 388.004 80.832C388.004 78.6133 388.431 76.6293 389.284 74.88C390.137 73.1307 391.375 71.7547 392.996 70.752C394.617 69.728 396.58 69.216 398.884 69.216C401.401 69.216 403.492 69.824 405.156 71.04C406.841 72.256 407.929 73.9307 408.42 76.064H405.316C405.017 74.72 404.303 73.6533 403.172 72.864C402.063 72.0747 400.633 71.68 398.884 71.68C397.113 71.68 395.62 72.0853 394.404 72.896C393.188 73.7067 392.271 74.8053 391.652 76.192C391.055 77.5573 390.756 79.104 390.756 80.832C390.756 82.5813 391.065 84.1493 391.684 85.536C392.303 86.9227 393.199 88.0107 394.372 88.8C395.545 89.5893 396.953 89.984 398.596 89.984C400.985 89.984 402.788 89.2907 404.004 87.904C405.22 86.496 405.913 84.576 406.084 82.144H398.02V80.032H408.836V92H406.372L406.148 88.32C405.337 89.6213 404.345 90.624 403.172 91.328C401.999 92.032 400.441 92.384 398.5 92.384ZM420.255 92.384C418.804 92.384 417.471 92.064 416.255 91.424C415.039 90.7627 414.068 89.8133 413.343 88.576C412.617 87.3173 412.255 85.8027 412.255 84.032C412.255 82.3467 412.607 80.8853 413.311 79.648C414.036 78.4107 415.007 77.4507 416.223 76.768C417.46 76.0853 418.847 75.744 420.383 75.744C421.855 75.744 423.199 76.064 424.415 76.704C425.652 77.344 426.644 78.2827 427.391 79.52C428.137 80.7573 428.511 82.2613 428.511 84.032C428.511 85.6533 428.159 87.0933 427.455 88.352C426.751 89.6107 425.769 90.6027 424.511 91.328C423.273 92.032 421.855 92.384 420.255 92.384ZM420.255 90.048C421.3 90.048 422.239 89.8027 423.071 89.312C423.903 88.8 424.564 88.096 425.055 87.2C425.545 86.304 425.791 85.248 425.791 84.032C425.791 82.88 425.577 81.856 425.151 80.96C424.724 80.064 424.105 79.36 423.295 78.848C422.484 78.336 421.503 78.08 420.351 78.08C419.177 78.08 418.185 78.3467 417.375 78.88C416.585 79.4133 415.988 80.128 415.583 81.024C415.177 81.92 414.975 82.9227 414.975 84.032C414.975 85.44 415.231 86.592 415.743 87.488C416.255 88.3627 416.916 89.0133 417.727 89.44C418.537 89.8453 419.38 90.048 420.255 90.048ZM436.003 92L429.987 76.128H432.803L437.571 89.408L442.371 76.128H445.123L439.107 92H436.003ZM454.438 92.384C452.966 92.384 451.632 92.0427 450.438 91.36C449.264 90.6773 448.336 89.7173 447.654 88.48C446.971 87.2213 446.63 85.7493 446.63 84.064C446.63 82.4 446.95 80.9493 447.59 79.712C448.251 78.4533 449.168 77.4827 450.342 76.8C451.536 76.096 452.923 75.744 454.502 75.744C455.995 75.744 457.296 76.0747 458.406 76.736C459.515 77.3973 460.379 78.2933 460.998 79.424C461.638 80.5333 461.958 81.7813 461.958 83.168C461.958 83.4667 461.958 83.7013 461.958 83.872C461.958 84.0427 461.947 84.3093 461.926 84.672H449.286C449.35 85.7173 449.595 86.656 450.022 87.488C450.47 88.2987 451.067 88.9387 451.814 89.408C452.582 89.8773 453.456 90.112 454.438 90.112C455.547 90.112 456.475 89.856 457.222 89.344C457.968 88.832 458.512 88.1387 458.854 87.264H461.51C461.232 88.2453 460.774 89.12 460.134 89.888C459.494 90.656 458.694 91.264 457.734 91.712C456.795 92.16 455.696 92.384 454.438 92.384ZM449.318 82.592H459.302C459.238 81.1627 458.747 80.0427 457.83 79.232C456.912 78.4213 455.782 78.016 454.438 78.016C453.158 78.016 452.016 78.4107 451.014 79.2C450.032 79.968 449.467 81.0987 449.318 82.592ZM465.521 92V76.128H467.953L468.177 79.168C468.667 78.1227 469.414 77.2907 470.417 76.672C471.419 76.0533 472.657 75.744 474.129 75.744V78.56H473.393C471.643 78.56 470.342 79.0293 469.489 79.968C468.635 80.9067 468.209 82.2507 468.209 84V92H465.521ZM477.146 92V76.128H479.578L479.738 78.976C480.25 77.9733 480.986 77.184 481.946 76.608C482.906 76.032 483.994 75.744 485.21 75.744C487.087 75.744 488.58 76.32 489.69 77.472C490.82 78.6027 491.385 80.352 491.385 82.72V92H488.698V83.008C488.698 81.3653 488.356 80.128 487.674 79.296C486.991 78.464 485.967 78.048 484.602 78.048C483.236 78.048 482.095 78.5493 481.178 79.552C480.282 80.5333 479.834 81.9413 479.834 83.776V92H477.146ZM495.489 92V76.128H497.921L498.113 78.432C498.625 77.5787 499.308 76.9173 500.161 76.448C501.015 75.9787 501.975 75.744 503.041 75.744C504.3 75.744 505.377 76 506.273 76.512C507.191 77.024 507.895 77.8027 508.385 78.848C508.94 77.888 509.697 77.1307 510.657 76.576C511.639 76.0213 512.695 75.744 513.825 75.744C515.105 75.744 516.204 76 517.121 76.512C518.06 77.0027 518.785 77.7707 519.297 78.816C519.809 79.84 520.065 81.1413 520.065 82.72V92H517.409V83.008C517.409 81.3653 517.079 80.128 516.417 79.296C515.756 78.464 514.807 78.048 513.569 78.048C512.289 78.048 511.223 78.5493 510.369 79.552C509.537 80.5333 509.121 81.9413 509.121 83.776V92H506.433V83.008C506.433 81.3653 506.103 80.128 505.441 79.296C504.78 78.464 503.831 78.048 502.593 78.048C501.335 78.048 500.279 78.5493 499.425 79.552C498.593 80.5333 498.177 81.9413 498.177 83.776V92H495.489ZM531.25 92.384C529.778 92.384 528.445 92.0427 527.25 91.36C526.077 90.6773 525.149 89.7173 524.466 88.48C523.784 87.2213 523.442 85.7493 523.442 84.064C523.442 82.4 523.762 80.9493 524.402 79.712C525.064 78.4533 525.981 77.4827 527.154 76.8C528.349 76.096 529.736 75.744 531.314 75.744C532.808 75.744 534.109 76.0747 535.218 76.736C536.328 77.3973 537.192 78.2933 537.81 79.424C538.45 80.5333 538.77 81.7813 538.77 83.168C538.77 83.4667 538.77 83.7013 538.77 83.872C538.77 84.0427 538.76 84.3093 538.738 84.672H526.098C526.162 85.7173 526.408 86.656 526.834 87.488C527.282 88.2987 527.88 88.9387 528.626 89.408C529.394 89.8773 530.269 90.112 531.25 90.112C532.36 90.112 533.288 89.856 534.034 89.344C534.781 88.832 535.325 88.1387 535.666 87.264H538.322C538.045 88.2453 537.586 89.12 536.946 89.888C536.306 90.656 535.506 91.264 534.546 91.712C533.608 92.16 532.509 92.384 531.25 92.384ZM526.13 82.592H536.114C536.05 81.1627 535.56 80.0427 534.642 79.232C533.725 78.4213 532.594 78.016 531.25 78.016C529.97 78.016 528.829 78.4107 527.826 79.2C526.845 79.968 526.28 81.0987 526.13 82.592ZM542.333 92V76.128H544.765L544.925 78.976C545.437 77.9733 546.173 77.184 547.133 76.608C548.093 76.032 549.181 75.744 550.397 75.744C552.274 75.744 553.768 76.32 554.877 77.472C556.008 78.6027 556.573 80.352 556.573 82.72V92H553.885V83.008C553.885 81.3653 553.544 80.128 552.861 79.296C552.178 78.464 551.154 78.048 549.789 78.048C548.424 78.048 547.282 78.5493 546.365 79.552C545.469 80.5333 545.021 81.9413 545.021 83.776V92H542.333ZM566.949 92C565.498 92 564.357 91.648 563.525 90.944C562.693 90.24 562.277 88.9707 562.277 87.136V78.4H559.525V76.128H562.277V72.32H564.965V76.128H569.413V78.4H564.965V87.136C564.965 88.1387 565.167 88.8213 565.573 89.184C565.978 89.5253 566.693 89.696 567.717 89.696H569.413V92H566.949ZM591.505 92.384C589.243 92.384 587.313 91.8827 585.713 90.88C584.113 89.856 582.897 88.4693 582.065 86.72C581.233 84.9707 580.817 82.9973 580.817 80.8C580.817 78.624 581.222 76.6613 582.033 74.912C582.865 73.1627 584.081 71.776 585.681 70.752C587.281 69.728 589.222 69.216 591.505 69.216C594.065 69.216 596.145 69.8347 597.745 71.072C599.366 72.288 600.401 73.9947 600.849 76.192H597.873C597.531 74.8053 596.827 73.696 595.76 72.864C594.715 72.0107 593.297 71.584 591.505 71.584C589.734 71.584 588.262 72 587.089 72.832C585.915 73.6427 585.03 74.7413 584.433 76.128C583.857 77.5147 583.569 79.072 583.569 80.8C583.569 82.5707 583.867 84.1493 584.465 85.536C585.083 86.9227 585.979 88.0213 587.153 88.832C588.326 89.6213 589.777 90.016 591.505 90.016C593.297 90.016 594.715 89.6107 595.76 88.8C596.827 87.968 597.531 86.8693 597.873 85.504H600.849C600.401 87.6587 599.366 89.344 597.745 90.56C596.145 91.776 594.065 92.384 591.505 92.384ZM611.88 92.384C610.429 92.384 609.096 92.064 607.88 91.424C606.664 90.7627 605.693 89.8133 604.968 88.576C604.242 87.3173 603.88 85.8027 603.88 84.032C603.88 82.3467 604.232 80.8853 604.936 79.648C605.661 78.4107 606.632 77.4507 607.848 76.768C609.085 76.0853 610.472 75.744 612.008 75.744C613.48 75.744 614.824 76.064 616.04 76.704C617.277 77.344 618.269 78.2827 619.016 79.52C619.762 80.7573 620.136 82.2613 620.136 84.032C620.136 85.6533 619.784 87.0933 619.08 88.352C618.376 89.6107 617.394 90.6027 616.136 91.328C614.898 92.032 613.48 92.384 611.88 92.384ZM611.88 90.048C612.925 90.048 613.864 89.8027 614.696 89.312C615.528 88.8 616.189 88.096 616.68 87.2C617.17 86.304 617.416 85.248 617.416 84.032C617.416 82.88 617.202 81.856 616.776 80.96C616.349 80.064 615.73 79.36 614.92 78.848C614.109 78.336 613.128 78.08 611.976 78.08C610.802 78.08 609.81 78.3467 609 78.88C608.21 79.4133 607.613 80.128 607.208 81.024C606.802 81.92 606.6 82.9227 606.6 84.032C606.6 85.44 606.856 86.592 607.368 87.488C607.88 88.3627 608.541 89.0133 609.352 89.44C610.162 89.8453 611.005 90.048 611.88 90.048ZM623.864 92V69.6H626.552V92H623.864ZM630.958 92V69.6H633.646V92H630.958ZM645.188 92.384C643.716 92.384 642.382 92.0427 641.188 91.36C640.014 90.6773 639.086 89.7173 638.404 88.48C637.721 87.2213 637.38 85.7493 637.38 84.064C637.38 82.4 637.7 80.9493 638.34 79.712C639.001 78.4533 639.918 77.4827 641.092 76.8C642.286 76.096 643.673 75.744 645.252 75.744C646.745 75.744 648.046 76.0747 649.156 76.736C650.265 77.3973 651.129 78.2933 651.748 79.424C652.388 80.5333 652.708 81.7813 652.708 83.168C652.708 83.4667 652.708 83.7013 652.708 83.872C652.708 84.0427 652.697 84.3093 652.676 84.672H640.036C640.1 85.7173 640.345 86.656 640.772 87.488C641.22 88.2987 641.817 88.9387 642.564 89.408C643.332 89.8773 644.206 90.112 645.188 90.112C646.297 90.112 647.225 89.856 647.972 89.344C648.718 88.832 649.262 88.1387 649.604 87.264H652.26C651.982 88.2453 651.524 89.12 650.884 89.888C650.244 90.656 649.444 91.264 648.484 91.712C647.545 92.16 646.446 92.384 645.188 92.384ZM640.068 82.592H650.052C649.988 81.1627 649.497 80.0427 648.58 79.232C647.662 78.4213 646.532 78.016 645.188 78.016C643.908 78.016 642.766 78.4107 641.764 79.2C640.782 79.968 640.217 81.0987 640.068 82.592ZM662.575 99.424C661.316 99.424 660.111 99.264 658.959 98.944C657.807 98.624 656.868 98.08 656.143 97.312C655.439 96.5653 655.087 95.5627 655.087 94.304C655.087 93.4293 655.289 92.704 655.695 92.128C656.1 91.552 656.633 91.1147 657.295 90.816C656.783 90.5173 656.367 90.144 656.047 89.696C655.727 89.248 655.567 88.736 655.567 88.16C655.567 86.88 656.143 85.8453 657.295 85.056C656.868 84.5653 656.527 84.0213 656.271 83.424C656.036 82.8053 655.919 82.1227 655.919 81.376C655.919 80.2027 656.185 79.2 656.719 78.368C657.273 77.5147 658.02 76.864 658.959 76.416C659.919 75.968 661.007 75.744 662.223 75.744C663.119 75.744 663.961 75.872 664.751 76.128H670.159V78.4H667.695C667.972 78.8267 668.175 79.296 668.303 79.808C668.452 80.2987 668.527 80.8213 668.527 81.376C668.527 82.592 668.239 83.616 667.663 84.448C667.108 85.28 666.351 85.92 665.391 86.368C664.452 86.7947 663.396 87.008 662.223 87.008C661.625 87.008 661.081 86.944 660.591 86.816C660.1 86.688 659.609 86.5067 659.119 86.272C658.564 86.5493 658.286 86.976 658.286 87.552C658.286 88.6187 659.183 89.152 660.975 89.152H663.631C664.825 89.152 665.881 89.312 666.799 89.632C667.716 89.9307 668.431 90.432 668.943 91.136C669.476 91.8187 669.743 92.7573 669.743 93.952C669.743 95.168 669.401 96.1813 668.719 96.992C668.036 97.8027 667.151 98.4107 666.063 98.816C664.975 99.2213 663.812 99.424 662.575 99.424ZM662.51 97.184C663.791 97.184 664.879 96.9387 665.775 96.448C666.671 95.9787 667.119 95.2533 667.119 94.272C667.119 92.4373 666.009 91.52 663.791 91.52H661.071C660.025 91.52 659.204 91.744 658.607 92.192C658.009 92.6613 657.711 93.3547 657.711 94.272C657.711 94.976 657.935 95.5413 658.383 95.968C658.831 96.3947 659.417 96.704 660.143 96.896C660.868 97.088 661.657 97.184 662.51 97.184ZM662.159 84.768C663.268 84.768 664.175 84.448 664.879 83.808C665.583 83.168 665.935 82.3573 665.935 81.376C665.935 80.3947 665.583 79.584 664.879 78.944C664.175 78.304 663.268 77.984 662.159 77.984C661.049 77.984 660.153 78.304 659.471 78.944C658.809 79.584 658.479 80.3947 658.479 81.376C658.479 82.3573 658.799 83.168 659.439 83.808C660.1 84.448 661.007 84.768 662.159 84.768ZM680.094 92.384C678.622 92.384 677.289 92.0427 676.094 91.36C674.921 90.6773 673.993 89.7173 673.31 88.48C672.627 87.2213 672.286 85.7493 672.286 84.064C672.286 82.4 672.606 80.9493 673.246 79.712C673.907 78.4533 674.825 77.4827 675.998 76.8C677.193 76.096 678.579 75.744 680.158 75.744C681.651 75.744 682.953 76.0747 684.062 76.736C685.171 77.3973 686.035 78.2933 686.654 79.424C687.294 80.5333 687.614 81.7813 687.614 83.168C687.614 83.4667 687.614 83.7013 687.614 83.872C687.614 84.0427 687.603 84.3093 687.582 84.672H674.942C675.006 85.7173 675.251 86.656 675.678 87.488C676.126 88.2987 676.723 88.9387 677.47 89.408C678.238 89.8773 679.113 90.112 680.094 90.112C681.203 90.112 682.131 89.856 682.878 89.344C683.625 88.832 684.169 88.1387 684.51 87.264H687.166C686.889 88.2453 686.43 89.12 685.79 89.888C685.15 90.656 684.35 91.264 683.39 91.712C682.451 92.16 681.353 92.384 680.094 92.384ZM674.974 82.592H684.958C684.894 81.1627 684.403 80.0427 683.486 79.232C682.569 78.4213 681.438 78.016 680.094 78.016C678.814 78.016 677.673 78.4107 676.67 79.2C675.689 79.968 675.123 81.0987 674.974 82.592ZM706.974 92.384C705.523 92.384 704.19 92.064 702.974 91.424C701.758 90.7627 700.787 89.8133 700.062 88.576C699.336 87.3173 698.974 85.8027 698.974 84.032C698.974 82.3467 699.326 80.8853 700.03 79.648C700.755 78.4107 701.726 77.4507 702.942 76.768C704.179 76.0853 705.566 75.744 707.102 75.744C708.574 75.744 709.918 76.064 711.134 76.704C712.371 77.344 713.363 78.2827 714.11 79.52C714.856 80.7573 715.23 82.2613 715.23 84.032C715.23 85.6533 714.878 87.0933 714.174 88.352C713.47 89.6107 712.488 90.6027 711.23 91.328C709.992 92.032 708.574 92.384 706.974 92.384ZM706.974 90.048C708.019 90.048 708.958 89.8027 709.79 89.312C710.622 88.8 711.283 88.096 711.774 87.2C712.264 86.304 712.51 85.248 712.51 84.032C712.51 82.88 712.296 81.856 711.87 80.96C711.443 80.064 710.824 79.36 710.014 78.848C709.203 78.336 708.222 78.08 707.07 78.08C705.896 78.08 704.904 78.3467 704.094 78.88C703.304 79.4133 702.707 80.128 702.302 81.024C701.896 81.92 701.694 82.9227 701.694 84.032C701.694 85.44 701.95 86.592 702.462 87.488C702.974 88.3627 703.635 89.0133 704.446 89.44C705.256 89.8453 706.099 90.048 706.974 90.048ZM719.822 92V78.4H717.422V76.128H719.822V74.016C719.822 72.48 720.206 71.36 720.974 70.656C721.742 69.952 722.862 69.6 724.334 69.6H725.934V71.904H724.75C723.939 71.904 723.363 72.0747 723.022 72.416C722.681 72.736 722.51 73.2907 722.51 74.08V76.128H726.414V78.4H722.51V92H719.822ZM738.243 92V69.6H752.099V71.808H740.931V79.072H750.691V81.248H740.931V89.792H752.099V92H738.243ZM756.146 92V76.128H758.578L758.738 78.976C759.25 77.9733 759.986 77.184 760.946 76.608C761.906 76.032 762.994 75.744 764.21 75.744C766.087 75.744 767.58 76.32 768.69 77.472C769.82 78.6027 770.385 80.352 770.385 82.72V92H767.698V83.008C767.698 81.3653 767.356 80.128 766.674 79.296C765.991 78.464 764.967 78.048 763.602 78.048C762.236 78.048 761.095 78.5493 760.178 79.552C759.282 80.5333 758.834 81.9413 758.834 83.776V92H756.146ZM780.793 99.424C779.535 99.424 778.329 99.264 777.177 98.944C776.025 98.624 775.087 98.08 774.361 97.312C773.657 96.5653 773.305 95.5627 773.305 94.304C773.305 93.4293 773.508 92.704 773.913 92.128C774.319 91.552 774.852 91.1147 775.513 90.816C775.001 90.5173 774.585 90.144 774.265 89.696C773.945 89.248 773.785 88.736 773.785 88.16C773.785 86.88 774.361 85.8453 775.513 85.056C775.087 84.5653 774.745 84.0213 774.489 83.424C774.255 82.8053 774.137 82.1227 774.137 81.376C774.137 80.2027 774.404 79.2 774.937 78.368C775.492 77.5147 776.239 76.864 777.177 76.416C778.137 75.968 779.225 75.744 780.441 75.744C781.337 75.744 782.18 75.872 782.969 76.128H788.377V78.4H785.913C786.191 78.8267 786.393 79.296 786.521 79.808C786.671 80.2987 786.745 80.8213 786.745 81.376C786.745 82.592 786.457 83.616 785.881 84.448C785.327 85.28 784.569 85.92 783.609 86.368C782.671 86.7947 781.615 87.008 780.441 87.008C779.844 87.008 779.3 86.944 778.809 86.816C778.319 86.688 777.828 86.5067 777.337 86.272C776.783 86.5493 776.505 86.976 776.505 87.552C776.505 88.6187 777.401 89.152 779.193 89.152H781.849C783.044 89.152 784.1 89.312 785.017 89.632C785.935 89.9307 786.649 90.432 787.161 91.136C787.695 91.8187 787.961 92.7573 787.961 93.952C787.961 95.168 787.62 96.1813 786.937 96.992C786.255 97.8027 785.369 98.4107 784.281 98.816C783.193 99.2213 782.031 99.424 780.793 99.424ZM780.729 97.184C782.009 97.184 783.097 96.9387 783.993 96.448C784.889 95.9787 785.337 95.2533 785.337 94.272C785.337 92.4373 784.228 91.52 782.009 91.52H779.289C778.244 91.52 777.423 91.744 776.825 92.192C776.228 92.6613 775.929 93.3547 775.929 94.272C775.929 94.976 776.153 95.5413 776.601 95.968C777.049 96.3947 777.636 96.704 778.361 96.896C779.087 97.088 779.876 97.184 780.729 97.184ZM780.377 84.768C781.487 84.768 782.393 84.448 783.097 83.808C783.801 83.168 784.153 82.3573 784.153 81.376C784.153 80.3947 783.801 79.584 783.097 78.944C782.393 78.304 781.487 77.984 780.377 77.984C779.268 77.984 778.372 78.304 777.689 78.944C777.028 79.584 776.697 80.3947 776.697 81.376C776.697 82.3573 777.017 83.168 777.657 83.808C778.319 84.448 779.225 84.768 780.377 84.768ZM793.059 72.608C792.525 72.608 792.077 72.4373 791.715 72.096C791.373 71.7333 791.203 71.2853 791.203 70.752C791.203 70.24 791.373 69.8133 791.715 69.472C792.077 69.1307 792.525 68.96 793.059 68.96C793.571 68.96 794.008 69.1307 794.371 69.472C794.733 69.8133 794.915 70.24 794.915 70.752C794.915 71.2853 794.733 71.7333 794.371 72.096C794.008 72.4373 793.571 72.608 793.059 72.608ZM791.715 92V76.128H794.403V92H791.715ZM799.083 92V76.128H801.515L801.675 78.976C802.187 77.9733 802.923 77.184 803.883 76.608C804.843 76.032 805.931 75.744 807.147 75.744C809.024 75.744 810.518 76.32 811.627 77.472C812.758 78.6027 813.323 80.352 813.323 82.72V92H810.635V83.008C810.635 81.3653 810.294 80.128 809.611 79.296C808.928 78.464 807.904 78.048 806.539 78.048C805.174 78.048 804.032 78.5493 803.115 79.552C802.219 80.5333 801.771 81.9413 801.771 83.776V92H799.083ZM824.563 92.384C823.091 92.384 821.757 92.0427 820.563 91.36C819.389 90.6773 818.461 89.7173 817.779 88.48C817.096 87.2213 816.755 85.7493 816.755 84.064C816.755 82.4 817.075 80.9493 817.715 79.712C818.376 78.4533 819.293 77.4827 820.467 76.8C821.661 76.096 823.048 75.744 824.627 75.744C826.12 75.744 827.421 76.0747 828.531 76.736C829.64 77.3973 830.504 78.2933 831.123 79.424C831.763 80.5333 832.083 81.7813 832.083 83.168C832.083 83.4667 832.083 83.7013 832.083 83.872C832.083 84.0427 832.072 84.3093 832.051 84.672H819.411C819.475 85.7173 819.72 86.656 820.147 87.488C820.595 88.2987 821.192 88.9387 821.939 89.408C822.707 89.8773 823.581 90.112 824.563 90.112C825.672 90.112 826.6 89.856 827.347 89.344C828.093 88.832 828.637 88.1387 828.979 87.264H831.635C831.357 88.2453 830.899 89.12 830.259 89.888C829.619 90.656 828.819 91.264 827.859 91.712C826.92 92.16 825.821 92.384 824.563 92.384ZM819.443 82.592H829.427C829.363 81.1627 828.872 80.0427 827.955 79.232C827.037 78.4213 825.907 78.016 824.563 78.016C823.283 78.016 822.141 78.4107 821.139 79.2C820.157 79.968 819.592 81.0987 819.443 82.592ZM842.782 92.384C841.31 92.384 839.976 92.0427 838.782 91.36C837.608 90.6773 836.68 89.7173 835.998 88.48C835.315 87.2213 834.974 85.7493 834.974 84.064C834.974 82.4 835.294 80.9493 835.934 79.712C836.595 78.4533 837.512 77.4827 838.686 76.8C839.88 76.096 841.267 75.744 842.845 75.744C844.339 75.744 845.64 76.0747 846.75 76.736C847.859 77.3973 848.723 78.2933 849.342 79.424C849.982 80.5333 850.302 81.7813 850.302 83.168C850.302 83.4667 850.302 83.7013 850.302 83.872C850.302 84.0427 850.291 84.3093 850.27 84.672H837.63C837.694 85.7173 837.939 86.656 838.366 87.488C838.814 88.2987 839.411 88.9387 840.158 89.408C840.926 89.8773 841.8 90.112 842.782 90.112C843.891 90.112 844.819 89.856 845.566 89.344C846.312 88.832 846.856 88.1387 847.198 87.264H849.854C849.576 88.2453 849.118 89.12 848.478 89.888C847.838 90.656 847.038 91.264 846.078 91.712C845.139 92.16 844.04 92.384 842.782 92.384ZM837.661 82.592H847.646C847.582 81.1627 847.091 80.0427 846.174 79.232C845.256 78.4213 844.126 78.016 842.782 78.016C841.502 78.016 840.36 78.4107 839.358 79.2C838.376 79.968 837.811 81.0987 837.661 82.592ZM853.864 92V76.128H856.296L856.52 79.168C857.011 78.1227 857.758 77.2907 858.76 76.672C859.763 76.0533 861 75.744 862.472 75.744V78.56H861.736C859.987 78.56 858.686 79.0293 857.832 79.968C856.979 80.9067 856.552 82.2507 856.552 84V92H853.864ZM867.121 72.608C866.588 72.608 866.14 72.4373 865.777 72.096C865.436 71.7333 865.265 71.2853 865.265 70.752C865.265 70.24 865.436 69.8133 865.777 69.472C866.14 69.1307 866.588 68.96 867.121 68.96C867.633 68.96 868.071 69.1307 868.433 69.472C868.796 69.8133 868.977 70.24 868.977 70.752C868.977 71.2853 868.796 71.7333 868.433 72.096C868.071 72.4373 867.633 72.608 867.121 72.608ZM865.777 92V76.128H868.465V92H865.777ZM873.146 92V76.128H875.578L875.738 78.976C876.25 77.9733 876.986 77.184 877.946 76.608C878.906 76.032 879.994 75.744 881.21 75.744C883.087 75.744 884.58 76.32 885.69 77.472C886.82 78.6027 887.385 80.352 887.385 82.72V92H884.698V83.008C884.698 81.3653 884.356 80.128 883.674 79.296C882.991 78.464 881.967 78.048 880.602 78.048C879.236 78.048 878.095 78.5493 877.178 79.552C876.282 80.5333 875.834 81.9413 875.834 83.776V92H873.146ZM897.793 99.424C896.535 99.424 895.329 99.264 894.177 98.944C893.025 98.624 892.087 98.08 891.361 97.312C890.657 96.5653 890.305 95.5627 890.305 94.304C890.305 93.4293 890.508 92.704 890.913 92.128C891.319 91.552 891.852 91.1147 892.513 90.816C892.001 90.5173 891.585 90.144 891.265 89.696C890.945 89.248 890.785 88.736 890.785 88.16C890.785 86.88 891.361 85.8453 892.513 85.056C892.087 84.5653 891.745 84.0213 891.489 83.424C891.255 82.8053 891.137 82.1227 891.137 81.376C891.137 80.2027 891.404 79.2 891.937 78.368C892.492 77.5147 893.239 76.864 894.177 76.416C895.137 75.968 896.225 75.744 897.441 75.744C898.337 75.744 899.18 75.872 899.969 76.128H905.377V78.4H902.913C903.191 78.8267 903.393 79.296 903.521 79.808C903.671 80.2987 903.745 80.8213 903.745 81.376C903.745 82.592 903.457 83.616 902.881 84.448C902.327 85.28 901.569 85.92 900.609 86.368C899.671 86.7947 898.615 87.008 897.441 87.008C896.844 87.008 896.3 86.944 895.809 86.816C895.319 86.688 894.828 86.5067 894.337 86.272C893.783 86.5493 893.505 86.976 893.505 87.552C893.505 88.6187 894.401 89.152 896.193 89.152H898.849C900.044 89.152 901.1 89.312 902.017 89.632C902.935 89.9307 903.649 90.432 904.161 91.136C904.695 91.8187 904.961 92.7573 904.961 93.952C904.961 95.168 904.62 96.1813 903.937 96.992C903.255 97.8027 902.369 98.4107 901.281 98.816C900.193 99.2213 899.031 99.424 897.793 99.424ZM897.729 97.184C899.009 97.184 900.097 96.9387 900.993 96.448C901.889 95.9787 902.337 95.2533 902.337 94.272C902.337 92.4373 901.228 91.52 899.009 91.52H896.289C895.244 91.52 894.423 91.744 893.825 92.192C893.228 92.6613 892.929 93.3547 892.929 94.272C892.929 94.976 893.153 95.5413 893.601 95.968C894.049 96.3947 894.636 96.704 895.361 96.896C896.087 97.088 896.876 97.184 897.729 97.184ZM897.377 84.768C898.487 84.768 899.393 84.448 900.097 83.808C900.801 83.168 901.153 82.3573 901.153 81.376C901.153 80.3947 900.801 79.584 900.097 78.944C899.393 78.304 898.487 77.984 897.377 77.984C896.268 77.984 895.372 78.304 894.689 78.944C894.028 79.584 893.697 80.3947 893.697 81.376C893.697 82.3573 894.017 83.168 894.657 83.808C895.319 84.448 896.225 84.768 897.377 84.768ZM914.752 95.808L916.608 88.736H919.391L916.608 95.808H914.752ZM922.743 92V69.6H925.431L937.367 87.552V69.6H940.055V92H937.367L925.431 74.048V92H922.743ZM949.926 92.384C948.838 92.384 947.846 92.2027 946.95 91.84C946.054 91.4773 945.339 90.9333 944.806 90.208C944.294 89.4613 944.038 88.5547 944.038 87.488C944.038 86.2507 944.358 85.2693 944.998 84.544C945.638 83.7973 946.48 83.264 947.526 82.944C948.592 82.6027 949.734 82.432 950.95 82.432H955.238C955.238 81.3227 955.046 80.448 954.662 79.808C954.299 79.168 953.819 78.7093 953.222 78.432C952.624 78.1547 951.963 78.016 951.238 78.016C950.192 78.016 949.286 78.272 948.518 78.784C947.771 79.2747 947.302 80.0427 947.11 81.088H944.358C944.464 79.936 944.848 78.9653 945.51 78.176C946.171 77.3867 947.003 76.7893 948.006 76.384C949.03 75.9573 950.107 75.744 951.238 75.744C952.838 75.744 954.128 76.0427 955.11 76.64C956.091 77.216 956.806 77.9947 957.254 78.976C957.702 79.9573 957.926 81.0453 957.926 82.24V87.104C957.926 87.8933 958.022 88.4907 958.214 88.896C958.406 89.3013 958.896 89.5467 959.686 89.632V92C958.982 92 958.342 91.9147 957.766 91.744C957.19 91.552 956.699 91.2533 956.294 90.848C955.91 90.4213 955.632 89.8667 955.462 89.184C954.928 90.08 954.192 90.8373 953.254 91.456C952.336 92.0747 951.227 92.384 949.926 92.384ZM950.342 90.112C951.408 90.112 952.304 89.8453 953.03 89.312C953.755 88.7573 954.299 88.0533 954.662 87.2C955.046 86.3467 955.238 85.4613 955.238 84.544V84.512H951.174C950.427 84.512 949.723 84.5973 949.062 84.768C948.4 84.9173 947.867 85.2053 947.462 85.632C947.056 86.0373 946.854 86.6133 946.854 87.36C946.854 88.32 947.195 89.024 947.878 89.472C948.56 89.8987 949.382 90.112 950.342 90.112ZM969.231 99.424C967.972 99.424 966.767 99.264 965.615 98.944C964.463 98.624 963.524 98.08 962.799 97.312C962.095 96.5653 961.743 95.5627 961.743 94.304C961.743 93.4293 961.945 92.704 962.351 92.128C962.756 91.552 963.289 91.1147 963.951 90.816C963.439 90.5173 963.023 90.144 962.703 89.696C962.383 89.248 962.223 88.736 962.223 88.16C962.223 86.88 962.799 85.8453 963.951 85.056C963.524 84.5653 963.183 84.0213 962.927 83.424C962.692 82.8053 962.575 82.1227 962.575 81.376C962.575 80.2027 962.841 79.2 963.375 78.368C963.929 77.5147 964.676 76.864 965.615 76.416C966.575 75.968 967.663 75.744 968.879 75.744C969.775 75.744 970.617 75.872 971.407 76.128H976.815V78.4H974.351C974.628 78.8267 974.831 79.296 974.959 79.808C975.108 80.2987 975.183 80.8213 975.183 81.376C975.183 82.592 974.895 83.616 974.319 84.448C973.764 85.28 973.007 85.92 972.047 86.368C971.108 86.7947 970.052 87.008 968.879 87.008C968.281 87.008 967.737 86.944 967.247 86.816C966.756 86.688 966.265 86.5067 965.775 86.272C965.22 86.5493 964.943 86.976 964.943 87.552C964.943 88.6187 965.839 89.152 967.631 89.152H970.287C971.481 89.152 972.537 89.312 973.455 89.632C974.372 89.9307 975.087 90.432 975.599 91.136C976.132 91.8187 976.399 92.7573 976.399 93.952C976.399 95.168 976.057 96.1813 975.375 96.992C974.692 97.8027 973.807 98.4107 972.719 98.816C971.631 99.2213 970.468 99.424 969.231 99.424ZM969.167 97.184C970.447 97.184 971.535 96.9387 972.431 96.448C973.327 95.9787 973.775 95.2533 973.775 94.272C973.775 92.4373 972.665 91.52 970.447 91.52H967.727C966.681 91.52 965.86 91.744 965.263 92.192C964.665 92.6613 964.367 93.3547 964.367 94.272C964.367 94.976 964.591 95.5413 965.039 95.968C965.487 96.3947 966.073 96.704 966.799 96.896C967.524 97.088 968.313 97.184 969.167 97.184ZM968.815 84.768C969.924 84.768 970.831 84.448 971.535 83.808C972.239 83.168 972.591 82.3573 972.591 81.376C972.591 80.3947 972.239 79.584 971.535 78.944C970.831 78.304 969.924 77.984 968.815 77.984C967.705 77.984 966.809 78.304 966.127 78.944C965.465 79.584 965.135 80.3947 965.135 81.376C965.135 82.3573 965.455 83.168 966.095 83.808C966.756 84.448 967.663 84.768 968.815 84.768ZM979.864 99.04V76.128H982.296L982.552 78.752C983.064 77.984 983.79 77.2907 984.728 76.672C985.688 76.0533 986.904 75.744 988.376 75.744C989.976 75.744 991.363 76.1067 992.536 76.832C993.71 77.5573 994.616 78.5493 995.256 79.808C995.896 81.0667 996.216 82.496 996.216 84.096C996.216 85.6747 995.896 87.0933 995.256 88.352C994.616 89.6107 993.699 90.6027 992.504 91.328C991.331 92.032 989.944 92.384 988.344 92.384C987.043 92.384 985.88 92.1173 984.856 91.584C983.854 91.0507 983.086 90.304 982.552 89.344V99.04H979.864ZM988.056 90.048C989.144 90.048 990.094 89.8027 990.904 89.312C991.715 88.8 992.344 88.096 992.792 87.2C993.262 86.2827 993.496 85.2373 993.496 84.064C993.496 82.9333 993.272 81.92 992.824 81.024C992.398 80.1067 991.779 79.392 990.968 78.88C990.158 78.3467 989.187 78.08 988.056 78.08C986.99 78.08 986.04 78.336 985.208 78.848C984.398 79.3387 983.758 80.032 983.288 80.928C982.84 81.824 982.616 82.8693 982.616 84.064C982.616 85.1733 982.84 86.1867 983.288 87.104C983.736 88 984.366 88.7147 985.176 89.248C985.987 89.7813 986.947 90.048 988.056 90.048ZM1005.78 92.384C1004.54 92.384 1003.46 92.1387 1002.52 91.648C1001.6 91.136 1000.89 90.368 1000.37 89.344C999.862 88.2987 999.606 86.9867 999.606 85.408V76.128H1002.29V85.12C1002.29 86.7627 1002.64 88 1003.32 88.832C1004 89.664 1005.02 90.08 1006.39 90.08C1007.76 90.08 1008.89 89.5893 1009.78 88.608C1010.7 87.6053 1011.16 86.1867 1011.16 84.352V76.128H1013.85V92H1011.41L1011.25 89.152C1010.74 90.1547 1010.01 90.944 1009.05 91.52C1008.09 92.096 1007 92.384 1005.78 92.384ZM1018.27 92V76.128H1020.7L1020.93 79.168C1021.42 78.1227 1022.16 77.2907 1023.17 76.672C1024.17 76.0533 1025.41 75.744 1026.88 75.744V78.56H1026.14C1024.39 78.56 1023.09 79.0293 1022.24 79.968C1021.39 80.9067 1020.96 82.2507 1020.96 84V92H1018.27Z" fill="black"/>
</svg>
