<svg width="432" height="81" viewBox="0 0 432 81" fill="none" xmlns="http://www.w3.org/2000/svg">
<rect x="1.5" y="1.5" width="429" height="78" rx="39" fill="white"/>
<rect x="1.5" y="1.5" width="429" height="78" rx="39" stroke="#FFD427" stroke-width="3"/>
<path d="M57.6758 59.5V21.6875H69.2773C71.2109 21.6875 72.6719 22.1315 73.6602 23.0195C74.6484 23.8932 75.3073 25.125 75.6367 26.7148C75.9805 28.2904 76.1523 30.1452 76.1523 32.2793C76.1523 34.3418 75.8874 35.9889 75.3574 37.2207C74.8418 38.4525 73.8607 39.3047 72.4141 39.7773C73.6029 40.0208 74.4336 40.6152 74.9062 41.5605C75.3932 42.4915 75.6367 43.7018 75.6367 45.1914V59.5H68.1816V44.6973C68.1816 43.5944 67.9525 42.9141 67.4941 42.6562C67.0501 42.3841 66.3268 42.248 65.3242 42.248V59.5H57.6758ZM65.3672 35.6953H67.1934C68.2389 35.6953 68.7617 34.5566 68.7617 32.2793C68.7617 30.804 68.6471 29.8372 68.418 29.3789C68.1888 28.9206 67.7591 28.6914 67.1289 28.6914H65.3672V35.6953ZM87.5391 59.8438C85.2474 59.8438 83.4212 59.4141 82.0605 58.5547C80.6999 57.6953 79.7259 56.4564 79.1387 54.8379C78.5514 53.2194 78.2578 51.2715 78.2578 48.9941V36.0391C78.2578 33.0456 79.1172 30.7826 80.8359 29.25C82.5547 27.7031 84.918 26.9297 87.9258 26.9297C94.1133 26.9297 97.207 29.9661 97.207 36.0391V38.3809C97.207 41.2168 97.1784 43.1217 97.1211 44.0957H85.9492V50.3262C85.9492 50.8991 85.985 51.4648 86.0566 52.0234C86.1283 52.5677 86.2858 53.0189 86.5293 53.377C86.7871 53.735 87.1953 53.9141 87.7539 53.9141C88.556 53.9141 89.0573 53.5703 89.2578 52.8828C89.4583 52.181 89.5586 51.2715 89.5586 50.1543V47.0605H97.207V48.8867C97.207 51.293 96.9062 53.3125 96.3047 54.9453C95.7174 56.5638 94.7148 57.7884 93.2969 58.6191C91.8932 59.4355 89.974 59.8438 87.5391 59.8438ZM85.9062 40.2715H89.5586V35.9316C89.5586 34.7715 89.4154 33.9408 89.1289 33.4395C88.8424 32.9238 88.4128 32.666 87.8398 32.666C87.224 32.666 86.7441 32.9095 86.4004 33.3965C86.071 33.8835 85.9062 34.7285 85.9062 35.9316V40.2715ZM108.68 65.0859C107.19 65.0859 105.908 65.0072 104.834 64.8496C103.774 64.7064 102.822 64.4414 101.977 64.0547C101.132 63.668 100.286 63.1237 99.4414 62.4219L102.041 57.9746C103.917 59.0918 105.794 59.6504 107.67 59.6504C108.902 59.6504 109.818 59.2565 110.42 58.4688C111.021 57.681 111.322 56.6569 111.322 55.3965V52.2383C110.706 54.444 109.066 55.5469 106.402 55.5469C104.87 55.5469 103.631 55.1816 102.686 54.4512C101.74 53.7207 101.053 52.7324 100.623 51.4863C100.193 50.2402 99.9785 48.8509 99.9785 47.3184V35.7383C99.9785 34.0052 100.165 32.4798 100.537 31.1621C100.91 29.8301 101.561 28.7917 102.492 28.0469C103.423 27.3021 104.727 26.9297 106.402 26.9297C107.82 26.9297 108.923 27.2878 109.711 28.0039C110.513 28.7201 111.05 29.6868 111.322 30.9043V27.2734H119.164V54.9023C119.164 58.5547 118.319 61.1615 116.629 62.7227C114.953 64.2982 112.303 65.0859 108.68 65.0859ZM109.518 49.7461C110.721 49.7461 111.322 48.6576 111.322 46.4805V35.5234C111.322 34.9362 111.15 34.3346 110.807 33.7188C110.477 33.1029 110.019 32.7949 109.432 32.7949C108.687 32.7949 108.221 33.0742 108.035 33.6328C107.849 34.1771 107.756 34.8073 107.756 35.5234V46.4805C107.756 47.2539 107.849 47.9915 108.035 48.6934C108.236 49.3952 108.73 49.7461 109.518 49.7461ZM122.129 25.2969V18.8945H129.82V25.2969H122.129ZM122.129 59.5V27.2734H129.82V59.5H122.129ZM141.701 59.8438C135.342 59.8438 132.162 56.6211 132.162 50.1758V47.6191H139.896V51.4004C139.896 52.1309 140.04 52.7038 140.326 53.1191C140.613 53.5345 141.071 53.7422 141.701 53.7422C142.818 53.7422 143.377 52.9043 143.377 51.2285C143.377 49.8249 143.083 48.7793 142.496 48.0918C141.909 47.39 141.193 46.7168 140.348 46.0723L136.244 42.9141C134.955 41.9115 133.974 40.8516 133.301 39.7344C132.628 38.6172 132.291 37.0632 132.291 35.0723C132.291 33.2246 132.728 31.6992 133.602 30.4961C134.49 29.293 135.657 28.3978 137.104 27.8105C138.564 27.2233 140.14 26.9297 141.83 26.9297C148.075 26.9297 151.197 30.0449 151.197 36.2754V36.877H143.248V35.6523C143.248 35.0078 143.133 34.3848 142.904 33.7832C142.689 33.1816 142.26 32.8809 141.615 32.8809C140.527 32.8809 139.982 33.4538 139.982 34.5996C139.982 35.7598 140.441 36.6693 141.357 37.3281L146.127 40.8086C147.617 41.8828 148.863 43.1576 149.865 44.6328C150.882 46.1081 151.391 48.0703 151.391 50.5195C151.391 53.556 150.524 55.8691 148.791 57.459C147.072 59.0488 144.709 59.8438 141.701 59.8438ZM160.371 59.8438C158.294 59.8438 156.891 59.4069 156.16 58.5332C155.444 57.6452 155.086 56.2917 155.086 54.4727V34.3848H152.916V28.5195H155.086V21.6875H162.562V28.5195H164.732V34.3848H162.562V52.668C162.562 53.1979 162.648 53.5703 162.82 53.7852C162.992 54 163.322 54.1074 163.809 54.1074C164.152 54.1074 164.46 54.0788 164.732 54.0215V59.2637C164.561 59.321 164.023 59.4284 163.121 59.5859C162.219 59.7578 161.302 59.8438 160.371 59.8438ZM176.227 59.8438C173.935 59.8438 172.109 59.4141 170.748 58.5547C169.387 57.6953 168.413 56.4564 167.826 54.8379C167.239 53.2194 166.945 51.2715 166.945 48.9941V36.0391C166.945 33.0456 167.805 30.7826 169.523 29.25C171.242 27.7031 173.605 26.9297 176.613 26.9297C182.801 26.9297 185.895 29.9661 185.895 36.0391V38.3809C185.895 41.2168 185.866 43.1217 185.809 44.0957H174.637V50.3262C174.637 50.8991 174.673 51.4648 174.744 52.0234C174.816 52.5677 174.973 53.0189 175.217 53.377C175.475 53.735 175.883 53.9141 176.441 53.9141C177.243 53.9141 177.745 53.5703 177.945 52.8828C178.146 52.181 178.246 51.2715 178.246 50.1543V47.0605H185.895V48.8867C185.895 51.293 185.594 53.3125 184.992 54.9453C184.405 56.5638 183.402 57.7884 181.984 58.6191C180.581 59.4355 178.661 59.8438 176.227 59.8438ZM174.594 40.2715H178.246V35.9316C178.246 34.7715 178.103 33.9408 177.816 33.4395C177.53 32.9238 177.1 32.666 176.527 32.666C175.911 32.666 175.432 32.9095 175.088 33.3965C174.758 33.8835 174.594 34.7285 174.594 35.9316V40.2715ZM188.688 59.5V27.2734H196.508V30.8613C196.88 29.6152 197.539 28.6413 198.484 27.9395C199.43 27.2376 200.618 26.8867 202.051 26.8867V33.3105C201.421 33.3105 200.669 33.3822 199.795 33.5254C198.921 33.6543 198.155 33.8405 197.496 34.084C196.837 34.3132 196.508 34.571 196.508 34.8574V59.5H188.688ZM214.383 59.5V21.6875H222.16L225.641 39.7988V21.6875H232.945V59.5H225.555L221.773 40.5938V59.5H214.383ZM245.535 59.8438C239.118 59.8438 235.91 56.5137 235.91 49.8535V36.9199C235.91 33.8835 236.762 31.4629 238.467 29.6582C240.171 27.8392 242.527 26.9297 245.535 26.9297C248.557 26.9297 250.921 27.8392 252.625 29.6582C254.329 31.4629 255.182 33.8835 255.182 36.9199V49.8535C255.182 56.5137 251.966 59.8438 245.535 59.8438ZM245.535 53.9141C246.18 53.9141 246.638 53.6849 246.91 53.2266C247.197 52.7539 247.34 52.1595 247.34 51.4434V35.6953C247.34 33.819 246.738 32.8809 245.535 32.8809C244.332 32.8809 243.73 33.819 243.73 35.6953V51.4434C243.73 52.1595 243.867 52.7539 244.139 53.2266C244.425 53.6849 244.891 53.9141 245.535 53.9141ZM261.412 59.5L257.523 27.2734H264.119L266.246 44.5898L268.115 27.2734H275.484L277.697 44.5898L279.48 27.2734H286.098L282.166 59.5H274.066L271.746 41.2168L269.727 59.5H261.412Z" fill="#FFD427"/>
<path d="M345.725 19.3249C346.487 18.5625 347.522 18.1342 348.6 18.1342C349.678 18.1342 350.713 18.5625 351.475 19.3249L369.775 37.6249C370.538 38.3875 370.966 39.4217 370.966 40.5C370.966 41.5783 370.538 42.6125 369.775 43.3751L351.475 61.6751C350.708 62.4159 349.681 62.8258 348.615 62.8166C347.548 62.8073 346.528 62.3796 345.774 61.6256C345.02 60.8716 344.593 59.8516 344.583 58.7854C344.574 57.7191 344.984 56.6919 345.725 55.9249L356.733 44.5667H318.1C317.021 44.5667 315.987 44.1382 315.224 43.3756C314.462 42.6129 314.033 41.5786 314.033 40.5C314.033 39.4215 314.462 38.3871 315.224 37.6244C315.987 36.8618 317.021 36.4333 318.1 36.4333H356.733L345.725 25.0751C344.962 24.3125 344.534 23.2783 344.534 22.2C344.534 21.1217 344.962 20.0875 345.725 19.3249Z" fill="#FFD427"/>
</svg>
